{
  "accessors": [
    {
      "bufferView": 2,
      "componentType": 5126,
      "count": 5442,
      "max": [
        1.493254542350769,
        2.9351539611816406,
        2.2241463661193848
      ],
      "min": [
        -1.2877455949783325,
        -3.5588464736938477,
        -2.6958537101745605
      ],
      "type": "VEC3"
    },
    {
      "bufferView": 2,
      "byteOffset": 65304,
      "componentType": 5126,
      "count": 5442,
      "max": [
        0.9998447299003601,
        0.9993985295295715,
        0.9999409317970276
      ],
      "min": [
        -0.9999239444732666,
        -0.9996863603591919,
        -0.9989635944366455
      ],
      "type": "VEC3"
    },
    {
      "bufferView": 1,
      "componentType": 5126,
      "count": 5442,
      "max": [
        0.997358500957489,
        1.0359301567077637
      ],
      "min": [
        0.001332104206085205,
        0.0027567148208618164
      ],
      "type": "VEC2"
    },
    {
      "bufferView": 0,
      "componentType": 5125,
      "count": 11832,
      "type": "SCALAR"
    }
  ],
  "asset": {
    "extras": {
      "author": "missafe (https://sketchfab.com/missafe)",
      "license": "CC-BY-4.0 (http://creativecommons.org/licenses/by/4.0/)",
      "source": "https://sketchfab.com/3d-models/igris-solo-leveling-0eeb4795c56d4a5cbca69ba2bd340c6a",
      "title": "Igris Solo Leveling"
    },
    "generator": "Sketchfab-16.64.0",
    "version": "2.0"
  },
  "bufferViews": [
    {
      "buffer": 0,
      "byteLength": 47328,
      "name": "floatBufferViews",
      "target": 34963
    },
    {
      "buffer": 0,
      "byteLength": 43536,
      "byteOffset": 47328,
      "byteStride": 8,
      "name": "floatBufferViews",
      "target": 34962
    },
    {
      "buffer": 0,
      "byteLength": 130608,
      "byteOffset": 90864,
      "byteStride": 12,
      "name": "floatBufferViews",
      "target": 34962
    }
  ],
  "buffers": [
    {
      "byteLength": 221472,
      "uri": "scene.bin"
    }
  ],
  "images": [
    {
      "uri": "textures/Material.006_baseColor.png"
    }
  ],
  "materials": [
    {
      "doubleSided": true,
      "name": "Material.006",
      "pbrMetallicRoughness": {
        "baseColorTexture": {
          "index": 0
        },
        "metallicFactor": 0.0,
        "roughnessFactor": 0.8211145618000169
      }
    }
  ],
  "meshes": [
    {
      "name": "Igris_Material.006_0",
      "primitives": [
        {
          "attributes": {
            "NORMAL": 1,
            "POSITION": 0,
            "TEXCOORD_0": 2
          },
          "indices": 3,
          "material": 0,
          "mode": 4
        }
      ]
    }
  ],
  "nodes": [
    {
      "children": [
        1
      ],
      "matrix": [
        -1.0,
        -1.60812262295773e-16,
        2.8327693431939985e-16,
        0.0,
        2.832769343193999e-16,
        -2.2204460492503128e-16,
        1.0,
        0.0,
        -1.6081226229577292e-16,
        1.0,
        2.2204460492503136e-16,
        0.0,
        0.0,
        0.0,
        0.0,
        1.0
      ],
      "name": "Sketchfab_model"
    },
    {
      "children": [
        2
      ],
      "matrix": [
        0.009999999776482582,
        0.0,
        0.0,
        0.0,
        0.0,
        0.0,
        0.009999999776482582,
        0.0,
        0.0,
        -0.009999999776482582,
        0.0,
        0.0,
        0.0,
        0.0,
        0.0,
        1.0
      ],
      "name": "Igris.fbx"
    },
    {
      "children": [
        3
      ],
      "name": "RootNode"
    },
    {
      "children": [
        4
      ],
      "matrix": [
        3.306608359692725e-06,
        -2.898265878104369e-22,
        43.79735565185535,
        0.0,
        3.3066090550278214e-06,
        43.79735565185534,
        -2.4964203808635857e-13,
        0.0,
        -43.79735565185522,
        3.3066090550278315e-06,
        3.306608359692725e-06,
        0.0,
        0.0,
        0.0,
        0.0,
        1.0
      ],
      "name": "Igris"
    },
    {
      "mesh": 0,
      "name": "Igris_Material.006_0"
    }
  ],
  "samplers": [
    {
      "magFilter": 9729,
      "minFilter": 9987,
      "wrapS": 10497,
      "wrapT": 10497
    }
  ],
  "scene": 0,
  "scenes": [
    {
      "name": "Sketchfab_Scene",
      "nodes": [
        0
      ]
    }
  ],
  "textures": [
    {
      "sampler": 0,
      "source": 0
    }
  ]
}
